# Blender 4.1.0
# www.blender.org
o Cube.001
v 0.389547 -0.732366 1.906589
v 0.389547 0.732366 1.906589
v 0.389547 -0.732366 0.441857
v 0.389547 0.732366 0.441857
v 1.854279 -0.732366 1.906589
v 1.854279 0.732366 1.906589
v 1.854279 -0.732366 0.441857
v 1.854279 0.732366 0.441858
v 0.229060 -0.892853 1.174223
v 0.229060 -0.000000 2.067077
v 0.229060 0.892853 1.174223
v 0.229060 -0.000000 0.281370
v 1.121913 -0.892853 0.281370
v 1.121913 0.892853 0.281370
v 2.014766 -0.000000 0.281370
v 2.014766 -0.892853 1.174223
v 2.014766 0.892853 1.174223
v 2.014766 -0.000000 2.067077
v 1.121913 -0.892853 2.067076
v 1.121913 0.892853 2.067076
v -0.107738 0.000000 1.174223
v 1.121913 0.000000 -0.055428
v 2.351564 0.000000 1.174223
v 1.121913 0.000000 2.403874
v 1.121913 -1.229651 1.174223
v 1.121913 1.229651 1.174223
v 0.500000 4.755664 -0.500000
v 0.500000 -1.000000 -0.500000
v 0.500000 4.755664 0.500000
v 0.500000 -1.000000 0.500000
v -0.500000 4.755664 -0.500000
v -0.500000 -1.000000 -0.500000
v -0.500000 4.755664 0.500000
v -0.500000 -1.000000 0.500000
v 0.666667 3.446318 -0.666667
v -0.666667 3.446318 0.666667
v 0.666667 3.446318 0.666667
v -0.666667 3.446318 -0.666667
v 0.666667 -0.136196 -0.666667
v 0.666667 -0.136196 0.666667
v -0.666667 -0.136196 -0.666667
v -0.666667 -0.136196 0.666667
v -0.609568 -1.000000 -0.000000
v 0.000000 -1.000000 -0.609568
v 0.638117 -0.892025 -0.638117
v -0.638117 4.448491 0.638117
v 0.638117 -0.892025 0.638117
v -0.638117 -0.892025 -0.638117
v -0.000000 4.797507 0.609568
v 0.609568 4.797507 -0.000000
v -0.000000 -1.000000 0.609568
v -0.609568 4.797506 -0.000000
v 0.000000 4.797507 -0.609568
v 0.609568 -1.000000 -0.000000
v 0.638117 4.448491 -0.638117
v -0.666667 1.607325 0.666667
v 0.638117 4.448491 0.638117
v -0.638117 4.448491 -0.638117
v 0.000000 3.446318 -0.916667
v 0.916667 3.446318 -0.000000
v -0.916667 3.446318 -0.000000
v 0.000000 3.446318 0.916667
v 0.666667 1.607325 -0.666667
v 0.666667 1.607325 0.666667
v -0.666667 1.607325 -0.666667
v -0.638117 -0.892025 0.638117
v 0.000000 -0.136196 0.916667
v -0.916667 -0.136196 -0.000000
v 0.916667 -0.136196 -0.000000
v -0.000000 -0.136196 -0.916667
v -0.000000 4.885319 -0.000000
v -0.000000 4.452617 0.878086
v -0.878087 4.452617 -0.000000
v 0.000000 -1.000000 -0.000000
v 0.878087 4.452617 -0.000000
v -0.000000 4.452617 -0.878087
v 0.000000 1.607325 -0.916667
v 0.916667 1.607325 -0.000000
v -0.916667 1.607325 -0.000000
v 0.000000 1.607325 0.916667
v 0.000000 -0.892025 0.878086
v -0.878087 -0.892025 -0.000000
v 0.878087 -0.892025 -0.000000
v -0.000000 -0.892025 -0.878087
v 0.389547 -0.732366 -0.468720
v 0.389547 0.732366 -0.468720
v 0.389547 -0.732366 -1.933451
v 0.389547 0.732366 -1.933451
v 1.854279 -0.732366 -0.468720
v 1.854279 0.732366 -0.468720
v 1.854279 -0.732366 -1.933451
v 1.854279 0.732366 -1.933451
v 0.229060 -0.892853 -1.201085
v 0.229060 -0.000000 -0.308232
v 0.229060 0.892853 -1.201085
v 0.229060 -0.000000 -2.093939
v 1.121913 -0.892853 -2.093939
v 1.121913 0.892853 -2.093939
v 2.014766 -0.000000 -2.093939
v 2.014766 -0.892853 -1.201085
v 2.014766 0.892853 -1.201085
v 2.014766 -0.000000 -0.308232
v 1.121913 -0.892853 -0.308232
v 1.121913 0.892853 -0.308232
v -0.107738 0.000000 -1.201085
v 1.121913 0.000000 -2.430737
v 2.351564 0.000000 -1.201085
v 1.121913 0.000000 0.028566
v 1.121913 -1.229651 -1.201085
v 1.121913 1.229651 -1.201085
vn -0.5774 -0.5774 0.5774
vn -0.5774 0.5774 0.5774
vn -0.5774 -0.5774 -0.5774
vn -0.5774 0.5774 -0.5774
vn 0.5774 -0.5774 0.5774
vn 0.5774 0.5774 0.5774
vn 0.5774 -0.5774 -0.5774
vn 0.5774 0.5774 -0.5774
vn -0.7071 -0.7071 -0.0000
vn -0.7071 -0.0000 0.7071
vn -0.7071 0.7071 -0.0000
vn -0.7071 -0.0000 -0.7071
vn -0.0000 -0.7071 -0.7071
vn -0.0000 0.7071 -0.7071
vn 0.7071 -0.0000 -0.7071
vn 0.7071 -0.7071 -0.0000
vn 0.7071 0.7071 -0.0000
vn 0.7071 -0.0000 0.7071
vn -0.0000 -0.7071 0.7071
vn -0.0000 0.7071 0.7071
vn -1.0000 -0.0000 -0.0000
vn -0.0000 -0.0000 -1.0000
vn 1.0000 -0.0000 -0.0000
vn -0.0000 -0.0000 1.0000
vn -0.0000 -1.0000 -0.0000
vn -0.0000 1.0000 -0.0000
vn 0.4475 0.7743 -0.4475
vn 0.2179 -0.9513 -0.2179
vn 0.4475 0.7743 0.4475
vn 0.2179 -0.9513 0.2179
vn -0.4475 0.7743 -0.4475
vn -0.2179 -0.9513 -0.2179
vn -0.4475 0.7743 0.4475
vn -0.2179 -0.9513 0.2179
vn 0.7070 0.0200 -0.7070
vn -0.7070 0.0200 0.7070
vn 0.7070 0.0200 0.7070
vn -0.7070 0.0200 -0.7070
vn 0.7069 -0.0265 -0.7069
vn 0.7069 -0.0265 0.7069
vn -0.7069 -0.0265 -0.7069
vn -0.7069 -0.0265 0.7069
vn -0.2149 -0.9766 -0.0000
vn -0.0000 -0.9766 -0.2149
vn 0.6203 -0.4800 -0.6203
vn -0.6789 0.2797 0.6789
vn 0.6203 -0.4800 0.6203
vn -0.6203 -0.4800 -0.6203
vn -0.0000 0.8481 0.5298
vn 0.5298 0.8481 -0.0000
vn -0.0000 -0.9766 0.2149
vn -0.5298 0.8481 -0.0000
vn -0.0000 0.8481 -0.5298
vn 0.2149 -0.9766 -0.0000
vn 0.6789 0.2797 -0.6789
vn 0.6789 0.2797 0.6789
vn -0.6789 0.2797 -0.6789
vn -0.0000 0.0193 -0.9998
vn 0.9998 0.0193 -0.0000
vn -0.9998 0.0193 -0.0000
vn -0.0000 0.0193 0.9998
vn -0.6203 -0.4800 0.6203
vn -0.0000 -0.0256 0.9997
vn -0.9997 -0.0256 -0.0000
vn 0.9997 -0.0256 -0.0000
vn -0.0000 -0.0256 -0.9997
vn -0.0000 0.3068 0.9518
vn -0.9518 0.3068 -0.0000
vn 0.9518 0.3068 -0.0000
vn -0.0000 0.3068 -0.9518
vn -0.0000 -0.5176 0.8556
vn -0.8556 -0.5176 -0.0000
vn 0.8556 -0.5176 -0.0000
vn -0.0000 -0.5176 -0.8556
vt 0.375000 0.000000
vt 0.500000 0.125000
vt 0.375000 0.125000
vt 0.625000 0.000000
vt 0.500000 0.000000
vt 0.625000 0.250000
vt 0.500000 0.250000
vt 0.375000 0.250000
vt 0.500000 0.375000
vt 0.375000 0.375000
vt 0.625000 0.500000
vt 0.500000 0.500000
vt 0.375000 0.500000
vt 0.500000 0.625000
vt 0.375000 0.625000
vt 0.625000 0.750000
vt 0.500000 0.750000
vt 0.375000 0.750000
vt 0.500000 0.875000
vt 0.375000 0.875000
vt 0.625000 1.000000
vt 0.500000 1.000000
vt 0.375000 1.000000
vt 0.125000 0.500000
vt 0.250000 0.625000
vt 0.125000 0.625000
vt 0.250000 0.500000
vt 0.250000 0.750000
vt 0.125000 0.750000
vt 0.750000 0.625000
vt 0.625000 0.625000
vt 0.875000 0.500000
vt 0.750000 0.500000
vt 0.875000 0.750000
vt 0.750000 0.750000
vt 0.753026 0.625000
vt 0.655263 0.625000
vt 0.605831 0.750000
vt 0.564507 0.875000
vt 0.561927 0.750000
vt 0.605720 0.875000
vt 0.608945 1.000000
vt 0.592890 1.000000
vt 0.608945 0.000000
vt 0.564507 0.125000
vt 0.592890 0.000000
vt 0.605720 0.125000
vt 0.605075 0.250000
vt 0.561927 0.250000
vt 0.246528 0.625000
vt 0.605831 0.500000
vt 0.561927 0.625000
vt 0.561927 0.500000
vt 0.608101 0.625000
vt 0.561927 0.375000
vt 0.605075 0.375000
vt 0.484614 0.250000
vt 0.411315 0.375000
vt 0.411315 0.250000
vt 0.484614 0.375000
vt 0.484614 0.500000
vt 0.411315 0.500000
vt 0.411315 0.625000
vt 0.484614 0.625000
vt 0.484614 0.750000
vt 0.411315 0.750000
vt 0.483945 0.000000
vt 0.408289 0.125000
vt 0.375000 0.000000
vt 0.484502 0.125000
vt 0.484502 0.875000
vt 0.408289 0.875000
vt 0.483945 1.000000
vt 0.375000 1.000000
vt 0.378783 0.875000
vt 0.378671 0.750000
vt 0.375000 1.000000
vt 0.378783 0.125000
vt 0.375000 0.000000
vt 0.379539 0.250000
vt 0.376067 0.625000
vt 0.340278 0.625000
vt 0.378671 0.500000
vt 0.379539 0.375000
vt 0.625000 0.125000
vt 0.625000 0.375000
vt 0.625000 0.875000
vt 0.875000 0.625000
s 1
f 1/1/1 21/2/21 9/3/9
f 2/4/2 21/2/21 10/5/10
f 21/2/21 4/6/4 12/7/12
f 21/2/21 3/8/3 9/3/9
f 3/8/3 22/9/22 13/10/13
f 4/6/4 22/9/22 12/7/12
f 22/9/22 8/11/8 15/12/15
f 22/9/22 7/13/7 13/10/13
f 7/13/7 23/14/23 16/15/16
f 8/11/8 23/14/23 15/12/15
f 23/14/23 6/16/6 18/17/18
f 23/14/23 5/18/5 16/15/16
f 5/18/5 24/19/24 19/20/19
f 6/16/6 24/19/24 18/17/18
f 24/19/24 2/21/2 10/22/10
f 24/19/24 1/23/1 19/20/19
f 3/24/3 25/25/25 9/26/9
f 7/13/7 25/25/25 13/27/13
f 25/25/25 5/18/5 19/28/19
f 25/25/25 1/29/1 9/26/9
f 8/11/8 26/30/26 17/31/17
f 4/32/4 26/30/26 14/33/14
f 26/30/26 2/34/2 20/35/20
f 26/30/26 6/16/6 17/31/17
f 27/11/27 71/36/26 50/37/50
f 31/32/31 71/36/26 53/33/53
f 71/36/26 33/34/33 49/35/49
f 71/36/26 29/16/29 50/37/50
f 57/38/56 62/39/61 37/40/37
f 29/16/29 72/41/67 57/38/56
f 72/41/67 33/21/33 46/42/46
f 62/39/61 46/42/46 36/43/36
f 46/44/46 61/45/60 36/46/36
f 33/4/33 73/47/68 46/44/46
f 73/47/68 31/6/31 58/48/57
f 61/45/60 58/48/57 38/49/38
f 32/24/32 74/50/25 43/26/43
f 28/13/28 74/50/25 44/27/44
f 74/50/25 30/18/30 51/28/51
f 74/50/25 34/29/34 43/26/43
f 55/51/55 60/52/59 35/53/35
f 27/11/27 75/54/69 55/51/55
f 75/54/69 29/16/29 57/38/56
f 60/52/59 57/38/56 37/40/37
f 58/48/57 59/55/58 38/49/38
f 31/6/31 76/56/70 58/48/57
f 76/56/70 27/11/27 55/51/55
f 59/55/58 55/51/55 35/53/35
f 65/57/12 70/58/66 41/59/41
f 38/49/38 77/60/22 65/57/12
f 59/55/58 63/61/15 77/60/22
f 70/58/66 63/61/15 39/62/39
f 63/61/15 69/63/65 39/62/39
f 35/53/35 78/64/23 63/61/15
f 60/52/59 64/65/18 78/64/23
f 78/64/23 40/66/40 69/63/65
f 56/67/10 68/68/64 42/69/42
f 56/67/10 61/45/60 79/70/21
f 61/45/60 65/57/12 79/70/21
f 79/70/21 41/59/41 68/68/64
f 40/66/40 80/71/24 67/72/63
f 64/65/18 62/39/61 80/71/24
f 62/39/61 56/73/10 80/71/24
f 80/71/24 42/74/42 67/72/63
f 30/18/30 81/75/71 51/20/51
f 47/76/47 67/72/63 81/75/71
f 67/72/63 66/77/62 81/75/71
f 81/75/71 34/23/34 51/20/51
f 34/1/34 82/78/72 43/3/43
f 66/79/62 68/68/64 82/78/72
f 68/68/64 48/80/48 82/78/72
f 82/78/72 32/8/32 43/3/43
f 28/13/28 83/81/73 54/82/54
f 45/83/45 69/63/65 83/81/73
f 69/63/65 47/76/47 83/81/73
f 83/81/73 30/18/30 54/82/54
f 32/8/32 84/84/74 44/10/44
f 48/80/48 70/58/66 84/84/74
f 70/58/66 45/83/45 84/84/74
f 84/84/74 28/13/28 44/10/44
f 85/1/1 105/2/21 93/3/9
f 86/4/2 105/2/21 94/5/10
f 105/2/21 88/6/4 96/7/12
f 105/2/21 87/8/3 93/3/9
f 87/8/3 106/9/22 97/10/13
f 88/6/4 106/9/22 96/7/12
f 106/9/22 92/11/8 99/12/15
f 106/9/22 91/13/7 97/10/13
f 91/13/7 107/14/23 100/15/16
f 92/11/8 107/14/23 99/12/15
f 107/14/23 90/16/6 102/17/18
f 107/14/23 89/18/5 100/15/16
f 89/18/5 108/19/24 103/20/19
f 90/16/6 108/19/24 102/17/18
f 108/19/24 86/21/2 94/22/10
f 108/19/24 85/23/1 103/20/19
f 87/24/3 109/25/25 93/26/9
f 91/13/7 109/25/25 97/27/13
f 109/25/25 89/18/5 103/28/19
f 109/25/25 85/29/1 93/26/9
f 92/11/8 110/30/26 101/31/17
f 88/32/4 110/30/26 98/33/14
f 110/30/26 86/34/2 104/35/20
f 110/30/26 90/16/6 101/31/17
f 1/1/1 10/5/10 21/2/21
f 2/4/2 11/85/11 21/2/21
f 21/2/21 11/85/11 4/6/4
f 21/2/21 12/7/12 3/8/3
f 3/8/3 12/7/12 22/9/22
f 4/6/4 14/86/14 22/9/22
f 22/9/22 14/86/14 8/11/8
f 22/9/22 15/12/15 7/13/7
f 7/13/7 15/12/15 23/14/23
f 8/11/8 17/31/17 23/14/23
f 23/14/23 17/31/17 6/16/6
f 23/14/23 18/17/18 5/18/5
f 5/18/5 18/17/18 24/19/24
f 6/16/6 20/87/20 24/19/24
f 24/19/24 20/87/20 2/21/2
f 24/19/24 10/22/10 1/23/1
f 3/24/3 13/27/13 25/25/25
f 7/13/7 16/15/16 25/25/25
f 25/25/25 16/15/16 5/18/5
f 25/25/25 19/28/19 1/29/1
f 8/11/8 14/33/14 26/30/26
f 4/32/4 11/88/11 26/30/26
f 26/30/26 11/88/11 2/34/2
f 26/30/26 20/35/20 6/16/6
f 27/11/27 53/33/53 71/36/26
f 31/32/31 52/88/52 71/36/26
f 71/36/26 52/88/52 33/34/33
f 71/36/26 49/35/49 29/16/29
f 57/38/56 72/41/67 62/39/61
f 29/16/29 49/87/49 72/41/67
f 72/41/67 49/87/49 33/21/33
f 62/39/61 72/41/67 46/42/46
f 46/44/46 73/47/68 61/45/60
f 33/4/33 52/85/52 73/47/68
f 73/47/68 52/85/52 31/6/31
f 61/45/60 73/47/68 58/48/57
f 32/24/32 44/27/44 74/50/25
f 28/13/28 54/82/54 74/50/25
f 74/50/25 54/82/54 30/18/30
f 74/50/25 51/28/51 34/29/34
f 55/51/55 75/54/69 60/52/59
f 27/11/27 50/37/50 75/54/69
f 75/54/69 50/37/50 29/16/29
f 60/52/59 75/54/69 57/38/56
f 58/48/57 76/56/70 59/55/58
f 31/6/31 53/86/53 76/56/70
f 76/56/70 53/86/53 27/11/27
f 59/55/58 76/56/70 55/51/55
f 65/57/12 77/60/22 70/58/66
f 38/49/38 59/55/58 77/60/22
f 59/55/58 35/53/35 63/61/15
f 70/58/66 77/60/22 63/61/15
f 63/61/15 78/64/23 69/63/65
f 35/53/35 60/52/59 78/64/23
f 60/52/59 37/40/37 64/65/18
f 78/64/23 64/65/18 40/66/40
f 56/67/10 79/70/21 68/68/64
f 56/67/10 36/46/36 61/45/60
f 61/45/60 38/49/38 65/57/12
f 79/70/21 65/57/12 41/59/41
f 40/66/40 64/65/18 80/71/24
f 64/65/18 37/40/37 62/39/61
f 62/39/61 36/43/36 56/73/10
f 80/71/24 56/73/10 42/74/42
f 30/18/30 47/76/47 81/75/71
f 47/76/47 40/66/40 67/72/63
f 67/72/63 42/74/42 66/77/62
f 81/75/71 66/77/62 34/23/34
f 34/1/34 66/79/62 82/78/72
f 66/79/62 42/69/42 68/68/64
f 68/68/64 41/59/41 48/80/48
f 82/78/72 48/80/48 32/8/32
f 28/13/28 45/83/45 83/81/73
f 45/83/45 39/62/39 69/63/65
f 69/63/65 40/66/40 47/76/47
f 83/81/73 47/76/47 30/18/30
f 32/8/32 48/80/48 84/84/74
f 48/80/48 41/59/41 70/58/66
f 70/58/66 39/62/39 45/83/45
f 84/84/74 45/83/45 28/13/28
f 85/1/1 94/5/10 105/2/21
f 86/4/2 95/85/11 105/2/21
f 105/2/21 95/85/11 88/6/4
f 105/2/21 96/7/12 87/8/3
f 87/8/3 96/7/12 106/9/22
f 88/6/4 98/86/14 106/9/22
f 106/9/22 98/86/14 92/11/8
f 106/9/22 99/12/15 91/13/7
f 91/13/7 99/12/15 107/14/23
f 92/11/8 101/31/17 107/14/23
f 107/14/23 101/31/17 90/16/6
f 107/14/23 102/17/18 89/18/5
f 89/18/5 102/17/18 108/19/24
f 90/16/6 104/87/20 108/19/24
f 108/19/24 104/87/20 86/21/2
f 108/19/24 94/22/10 85/23/1
f 87/24/3 97/27/13 109/25/25
f 91/13/7 100/15/16 109/25/25
f 109/25/25 100/15/16 89/18/5
f 109/25/25 103/28/19 85/29/1
f 92/11/8 98/33/14 110/30/26
f 88/32/4 95/88/11 110/30/26
f 110/30/26 95/88/11 86/34/2
f 110/30/26 104/35/20 90/16/6
